# xmcd
#
# Track frame offsets:
#	150
#	15025
#	32985
#	52222
#	65765
#	78420
#	94580
#	109400
#	126520
#	147355
#	167825
#	203145
#
# Disc length: 2777 seconds
#
# Revision: 1
# Processed by: cddbd v1.5PL3 Copyright (c) Steve Scherf et al.
# Submitted via: CDex 1.50Beta5
#
DISCID=ac0ad70c
DTITLE=マカロニ - スーパーマン・ソリチュード
DYEAR=1999
DGENRE=Rock
TTITLE0=空に浮かべて
TTITLE1=New Revolution
TTITLE2=ドーベルマン
TTITLE3=Merry-go-round
TTITLE4=スインギング・モンキー
TTITLE5=ブリキの兵隊
TTITLE6=1984
TTITLE7=Stupid Life
TTITLE8=バイブレーション
TTITLE9=Gold
TTITLE10=青の情景
TTITLE11=I’m gonna break
EXTD=
EXTT0=
EXTT1=
EXTT2=
EXTT3=
EXTT4=
EXTT5=
EXTT6=
EXTT7=
EXTT8=
EXTT9=
EXTT10=
EXTT11=
PLAYORDER=
